<svg xmlns="http://www.w3.org/2000/svg" width="105.908" height="103.195" viewBox="0 0 105.908 103.195"><defs><style>.a{fill:#355092;}</style></defs><path class="a" d="M143.005,93.4a5.177,5.177,0,1,0-4.132-2.066l-8.5,11.873a5.157,5.157,0,0,0-5.13,1.13l-5.663-3.214a5.171,5.171,0,1,0-10.11,0l-5.663,3.214a5.164,5.164,0,1,0,1.535,2.7l5.663-3.214a5.158,5.158,0,0,0,7.04,0l5.663,3.214a5.172,5.172,0,1,0,9.187-2.019l8.5-11.873A5.155,5.155,0,0,0,143.005,93.4Zm0-7.24a2.069,2.069,0,1,1-2.069,2.069A2.071,2.071,0,0,1,143.005,86.164Zm-42.716,24.03a2.069,2.069,0,1,1,2.069-2.069A2.071,2.071,0,0,1,100.289,110.194Zm14.239-8.085a2.069,2.069,0,1,1,2.069-2.069A2.071,2.071,0,0,1,114.528,102.109Zm14.239,8.085a2.069,2.069,0,1,1,2.069-2.069A2.071,2.071,0,0,1,128.766,110.194Z" transform="translate(-75.443 -67.236)"/><path class="a" d="M86.629,109.794H4.388A1.287,1.287,0,0,1,3.1,108.508v-64a1.287,1.287,0,0,1,1.286-1.286H11.7a1.551,1.551,0,0,0,0-3.1H4.388A4.393,4.393,0,0,0,0,44.5v64A4.393,4.393,0,0,0,4.388,112.9h10.7v3.414a3.531,3.531,0,0,0,3.527,3.527H34.142l-7.31,14.272a1.551,1.551,0,1,0,2.761,1.414l8.035-15.687H54.78l8.035,15.687a1.551,1.551,0,1,0,2.761-1.414l-7.31-14.272H73.8a3.531,3.531,0,0,0,3.527-3.527V112.9h9.305a1.551,1.551,0,0,0,0-3.1ZM74.22,116.311a.425.425,0,0,1-.425.425H18.613a.425.425,0,0,1-.425-.425V112.9H74.22Z" transform="translate(0 -33.174)"/><path class="a" d="M80.622,16.6h70.113a1.287,1.287,0,0,1,1.286,1.286V32.639a1.551,1.551,0,0,0,3.1,0V17.888a4.393,4.393,0,0,0-4.388-4.388H117.53V10.45a3.9,3.9,0,0,0-3.892-3.892H104.2a3.9,3.9,0,0,0-3.892,3.892V13.5H80.622a1.551,1.551,0,0,0,0,3.1Zm22.789-6.152a.79.79,0,0,1,.79-.789h9.436a.79.79,0,0,1,.79.789V13.5H103.412V10.45Z" transform="translate(-62.715 -6.558)"/><path class="a" d="M98.953,267.576a1.551,1.551,0,0,0-1.551,1.551v13.708a1.551,1.551,0,0,0,1.551,1.551h6.294a1.551,1.551,0,0,0,1.551-1.551V269.127a1.551,1.551,0,0,0-1.551-1.551Zm4.742,13.709H100.5V270.679H103.7Z" transform="translate(-77.254 -213.584)"/><path class="a" d="M167.788,229.248a1.551,1.551,0,0,0-1.551,1.551v21.637a1.551,1.551,0,0,0,1.551,1.551h6.294a1.551,1.551,0,0,0,1.551-1.551V230.8a1.551,1.551,0,0,0-1.551-1.551Zm4.743,21.637H169.34V232.351h3.191Z" transform="translate(-131.851 -183.184)"/><path class="a" d="M236.624,267.576a1.551,1.551,0,0,0-1.551,1.551v13.708a1.551,1.551,0,0,0,1.551,1.551h6.294a1.551,1.551,0,0,0,1.551-1.551V269.127a1.551,1.551,0,0,0-1.551-1.551Zm4.742,13.709h-3.191V270.679h3.191Z" transform="translate(-186.448 -213.584)"/><path class="a" d="M305.46,311.832a1.551,1.551,0,0,0-1.551,1.551v4.554a1.551,1.551,0,0,0,1.551,1.551h6.294a1.551,1.551,0,1,0,0-3.1h-4.742v-3A1.551,1.551,0,0,0,305.46,311.832Z" transform="translate(-241.045 -248.686)"/><path class="a" d="M339.518,194.024l-8.9-15.416a20.287,20.287,0,1,0-20.06,5.725,20.388,20.388,0,0,0,5.281.7,20.022,20.022,0,0,0,4.567-.527l8.9,15.416a5.9,5.9,0,1,0,10.215-5.9Zm-28.157-12.688a17.175,17.175,0,1,1,13.032-1.716A17.063,17.063,0,0,1,311.361,181.336Zm24.448,18.057a2.8,2.8,0,0,1-3.818-1.022l-8.561-14.832a20.364,20.364,0,0,0,4.837-2.8l8.564,14.833a2.792,2.792,0,0,1-1.022,3.818Z" transform="translate(-234.402 -115.946)"/><path class="a" d="M351.1,190.348a14.682,14.682,0,0,0-.734-10.635,1.551,1.551,0,1,0-2.807,1.322,11.62,11.62,0,1,1-3.5-4.329,1.551,1.551,0,1,0,1.872-2.474,14.732,14.732,0,1,0,5.172,16.116Z" transform="translate(-255.632 -137.177)"/></svg>