<svg xmlns="http://www.w3.org/2000/svg" width="103.177" height="103.179" viewBox="0 0 103.177 103.179"><defs><style>.a{fill:#355092;}</style></defs><g transform="translate(13.703 91.088)"><path class="a" d="M71.443,452.591a2.013,2.013,0,1,0,.591,1.425A2.029,2.029,0,0,0,71.443,452.591Z" transform="translate(-68.003 -452.001)"/></g><g transform="translate(91.178 36.276)"><path class="a" d="M455.894,180.6a2.01,2.01,0,1,0,.592,1.425A2.026,2.026,0,0,0,455.894,180.6Z" transform="translate(-452.454 -180.008)"/></g><path class="a" d="M102.593.59A2.016,2.016,0,0,0,101.168,0L51.595,0A2.015,2.015,0,0,0,49.58,2.018V7.781L30.478,12.9a2.015,2.015,0,0,0-1.425,2.468l9.9,36.947-8.564,8.564a6.043,6.043,0,0,0-4.99-2.638H6.052A6.052,6.052,0,0,0,.007,64.286V97.134a6.052,6.052,0,0,0,6.045,6.046H25.4a6.055,6.055,0,0,0,5.867-4.591l2.4,2.09a10.153,10.153,0,0,0,6.674,2.5h60.833a2.015,2.015,0,0,0,2.015-2.015V2.015A2.017,2.017,0,0,0,102.593.59ZM27.413,97.134A2.018,2.018,0,0,1,25.4,99.149H6.052a2.018,2.018,0,0,1-2.015-2.015V64.287a2.018,2.018,0,0,1,2.015-2.015H13.71V85.486a2.015,2.015,0,1,0,4.03,0V62.271H25.4a2.018,2.018,0,0,1,2.015,2.015V97.134Zm6.054-80.863L49.58,11.953v7.467l-1.351.362A2.015,2.015,0,0,0,46.8,22.251,5.432,5.432,0,0,1,42.967,28.9a2.015,2.015,0,0,0-1.424,2.472L49.4,60.456H45.354L43.27,52.3a2.012,2.012,0,0,0-.338-.707ZM49.58,28.662v17L45.9,32.057A9.441,9.441,0,0,0,49.58,28.662ZM78.531,99.149h-38.2A6.124,6.124,0,0,1,36.31,97.64L31.443,93.4V65.524l8.8-8.8,1.6,6.243a2.015,2.015,0,0,0,1.952,1.516l39.62,0a2.821,2.821,0,0,1,0,5.643h-20.3a2.015,2.015,0,0,0,0,4.03H89.717a2.821,2.821,0,1,1,0,5.643H63.108a2.015,2.015,0,0,0,0,4.03h22.3a2.821,2.821,0,0,1,0,5.643h-22.3a2.015,2.015,0,1,0,0,4.03H78.531a2.821,2.821,0,1,1,0,5.642Zm20.622,0H84.773a6.827,6.827,0,0,0,0-5.643h.633a6.847,6.847,0,0,0,6.124-9.918A6.846,6.846,0,0,0,95.216,72.9V47.359a2.015,2.015,0,0,0-4.03,0V70.291a6.853,6.853,0,0,0-1.469-.16h-.066a6.847,6.847,0,0,0-6.241-9.673H80.17a9.644,9.644,0,1,0-7.577,0H61.577V22.14A9.486,9.486,0,0,0,68.8,14.915H83.96a9.486,9.486,0,0,0,7.225,7.225v6.265a2.015,2.015,0,1,0,4.03,0V20.341A2.015,2.015,0,0,0,93.2,18.325,5.432,5.432,0,0,1,87.775,12.9a2.015,2.015,0,0,0-2.015-2.015H67A2.015,2.015,0,0,0,64.988,12.9a5.432,5.432,0,0,1-5.426,5.426,2.015,2.015,0,0,0-2.015,2.015V60.457H53.61V4.033l45.543,0ZM76.382,57.2A5.614,5.614,0,1,1,82,51.59,5.62,5.62,0,0,1,76.382,57.2Z" transform="translate(-0.007 0)"/></svg>