<svg xmlns="http://www.w3.org/2000/svg" width="173.697" height="193.013" viewBox="0 0 173.697 193.013"><defs><style>.a{fill:#355092;}</style></defs><path class="a" d="M172.312,25.947l-8.248-7.263,8.248-7.261a4.071,4.071,0,0,0-2.69-7.127H135.49V2.829a2.829,2.829,0,1,0-5.658,0V40.98L106.6,53.6a8.95,8.95,0,0,0-.919-2.972l-3.274-6.391a8.95,8.95,0,0,0-12.031-3.882l-2.531,1.3A8.938,8.938,0,0,0,83.963,53.68l3.274,6.392a8.884,8.884,0,0,0,3.222,3.5c-1.738,2.34-2.562,5.217-3.41,8.207l-.61,2.159a2.828,2.828,0,0,0,1.953,3.491,2.785,2.785,0,0,0,.77.108,2.831,2.831,0,0,0,2.721-2.06l.61-2.154c1.24-4.372,2-6.713,4.425-8.03l4.346-2.361.536-.274c.178-.091.345-.194.514-.3l30.971-16.818a11.972,11.972,0,0,1-5.711,9.613l-20.14,12.237c-.024.013-.047.027-.069.041L101.1,71.243a2.829,2.829,0,0,0,2.7,4.963L99.042,90.584l-3.477,1.425-9.454,3.874,2.724-9.631a2.83,2.83,0,1,0-5.446-1.54l-4.3,15.222a2.715,2.715,0,0,0-.1.616l-1.127,20.693a9.468,9.468,0,0,1-.231,3.051L65.116,150.615H56.024a9.669,9.669,0,0,0-9.659,9.657v8.165a9.581,9.581,0,0,0-4-.87H19.277a9.667,9.667,0,0,0-9.657,9.657v10.131H2.829a2.829,2.829,0,1,0,0,5.658h166.79a2.829,2.829,0,0,0,0-5.658h-7.357V114.441a9.668,9.668,0,0,0-9.657-9.657H135.49V55.433a17.642,17.642,0,0,0,2.842-15.119,2.83,2.83,0,0,0-2.842-2.076V33.074h34.13a4.072,4.072,0,0,0,2.692-7.127ZM88.8,48.6a3.259,3.259,0,0,1,1.627-1.914l2.531-1.3a3.282,3.282,0,0,1,4.416,1.424l3.275,6.392a3.287,3.287,0,0,1-1.09,4.217l-.922.5-1.945,1a3.285,3.285,0,0,1-4.416-1.425L89,51.1a3.261,3.261,0,0,1-.2-2.5ZM83.112,151.485a9.6,9.6,0,0,0-3.106-.828l3.106-4.125Zm13.431-22.794a10.66,10.66,0,0,0,2.04-5.069c.077-.365,1.473-7.99,1.473-7.99s1.321.823,1.459.882a.3.3,0,0,1,.174.247l1.539,15.643h-9.48Zm16.728-15.614-2.389,19.314h-1.972l-1.592-16.184a5.96,5.96,0,0,0-3.332-4.783l-2.845-1.8,1.9-10.5s7.984,9.485,8.17,9.726c1.652,2.148,2.218,3.008,2.065,4.234ZM82.716,126.768a15.336,15.336,0,0,0,.792-5.251l1.028-18.872L97.62,97.283l-2.378,13.174c-.007.035-.015.072-.019.107l-1.967,10.893c-.256,1.128-.48,2.839-1.184,3.768l-19.115,25.39H71.38ZM15.278,177.223a4,4,0,0,1,4-4H42.366a4,4,0,0,1,4,4v10.133H15.278Zm36.745,0V160.272a4,4,0,0,1,4-4H79.112a4,4,0,0,1,4,4v27.084H52.024V177.223ZM156.6,114.441v72.914H125.516V170.394a2.83,2.83,0,0,0-5.659,0v16.961H88.77V142.061a4,4,0,0,1,4-4h23.088a4,4,0,0,1,4,4v14.181a2.829,2.829,0,0,0,5.658,0v-41.8a4,4,0,0,1,4-4H152.6a4.006,4.006,0,0,1,4,4Zm-27.088-9.657a9.668,9.668,0,0,0-9.657,9.657v18.834a9.575,9.575,0,0,0-3.279-.841l2.308-18.66c.454-3.637-1.4-6.048-3.2-8.38-.19-.247-11.186-13.3-11.186-13.3l6.746-20.4,18.581-11.289v44.378Zm5.974-77.369V9.955h29.927l-6.445,5.675a4.07,4.07,0,0,0,0,6.111l6.445,5.675H135.49Zm0,0"/></svg>