<svg xmlns="http://www.w3.org/2000/svg" width="107.654" height="103.195" viewBox="0 0 107.654 103.195"><defs><style>.a{fill:#355092;}</style></defs><path class="a" d="M100.609,25.244h-21.7a28.805,28.805,0,0,0-50.163,0H7.045A7.06,7.06,0,0,0,0,32.3V96.394a7.06,7.06,0,0,0,7.045,7.059H41.739v6.14H23.63a2.1,2.1,0,1,0,0,4.205H84.024a2.1,2.1,0,1,0,0-4.205H65.915v-6.14h34.694a7.06,7.06,0,0,0,7.045-7.059V32.3a7.06,7.06,0,0,0-7.045-7.059ZM53.827,14.809a24.614,24.614,0,0,1,5.956,48.5,2.1,2.1,0,0,0-1.078.66l-4.878,5.6-4.878-5.6a2.1,2.1,0,0,0-1.078-.66,24.614,24.614,0,0,1,5.956-48.5Zm7.883,94.785H45.944v-6.14H61.71Zm38.9-10.346H7.045a2.85,2.85,0,0,1-2.84-2.854V86.047h65.04a2.1,2.1,0,0,0,0-4.205H4.205V32.3a2.85,2.85,0,0,1,2.84-2.854H26.79A28.827,28.827,0,0,0,46.2,67.216l6.037,6.93a2.1,2.1,0,0,0,3.171,0l6.037-6.93A28.827,28.827,0,0,0,80.864,29.449h19.745a2.85,2.85,0,0,1,2.84,2.854V81.841H88.255a2.1,2.1,0,0,0,0,4.205h15.194V96.394a2.85,2.85,0,0,1-2.84,2.854Z" transform="translate(0 -10.604)"/><path class="a" d="M238.039,390.8h-7.3a2.1,2.1,0,0,0,0,4.205h7.3a2.1,2.1,0,1,0,0-4.205Z" transform="translate(-180.56 -310.859)"/><path class="a" d="M231.056,168.625a6.649,6.649,0,0,0,6.641-6.641v-6.849a6.641,6.641,0,1,0-13.282,0v6.849A6.649,6.649,0,0,0,231.056,168.625Zm-2.436-13.49a2.436,2.436,0,1,1,4.872,0v6.849a2.436,2.436,0,0,1-4.872,0Z" transform="translate(-177.229 -119.5)"/><path class="a" d="M231.056,75.886a6.641,6.641,0,1,0-6.641-6.641A6.649,6.649,0,0,0,231.056,75.886Zm0-9.077a2.436,2.436,0,1,1-2.436,2.436A2.439,2.439,0,0,1,231.056,66.809Z" transform="translate(-177.229 -51.67)"/><path class="a" d="M368.767,350.7a2.1,2.1,0,1,0-.774,2.552A2.122,2.122,0,0,0,368.767,350.7Z" transform="translate(-288.037 -278.169)"/></svg>