<svg xmlns="http://www.w3.org/2000/svg" width="173.652" height="193.283" viewBox="0 0 173.652 193.283"><defs><style>.a{fill:#355092;}</style></defs><g transform="translate(117.177)"><path class="a" d="M339.668,0A3.669,3.669,0,0,0,336,3.668V20.543a3.668,3.668,0,0,0,7.337,0V3.668A3.669,3.669,0,0,0,339.668,0Z" transform="translate(-336 0)"/></g><g transform="translate(30.239 117.917)"><path class="a" d="M109.668,312a3.668,3.668,0,1,0,3.668,3.668A3.67,3.67,0,0,0,109.668,312Z" transform="translate(-106 -312)"/></g><g transform="translate(0 38.885)"><path class="a" d="M199.652,176.734a15.173,15.173,0,0,0-15.1-15.212H156.371c4.363-11.258,6.129-24.509,5.788-36.3a43.634,43.634,0,0,0-.267-4.372,15.1,15.1,0,0,0-30.191.365v3.8c0,24.052-30.659,37.566-53.8,43.36a11.338,11.338,0,0,0-10.38-6.852H29.775a3.789,3.789,0,0,0-3.775,3.8V256.6a3.789,3.789,0,0,0,3.775,3.8H67.526a11.336,11.336,0,0,0,10.344-6.773q2.874.743,5.336,1.395c13.181,3.468,20.441,5.378,38.1,5.378h40.6a15.226,15.226,0,0,0,12.544-23.669,15.311,15.311,0,0,0,7.578-22.827,15.261,15.261,0,0,0,7.522-22.808A15.209,15.209,0,0,0,199.652,176.734ZM71.3,248.989a3.793,3.793,0,0,1-3.775,3.8H33.55V169.128H67.526a3.793,3.793,0,0,1,3.775,3.8ZM184.552,184.34H165.677a3.8,3.8,0,0,0,0,7.606H177a7.606,7.606,0,0,1,0,15.212H158.127a3.8,3.8,0,0,0,0,7.606h11.325a7.606,7.606,0,0,1,0,15.212H150.577a3.8,3.8,0,0,0,0,7.606H161.9a7.606,7.606,0,0,1,0,15.212H121.3c-16.688,0-23.206-1.715-36.191-5.131q-2.853-.751-6.263-1.633V175.983c27.319-6.555,60.4-22.557,60.4-50.968v-3.8a7.55,7.55,0,1,1,15.1-.012v.012c0,1.653,2.048,21.936-6.163,40.311H135.477a3.8,3.8,0,0,0,0,7.606h49.076a7.606,7.606,0,0,1,0,15.212Z" transform="translate(-26 -106)"/></g><g transform="translate(30.239 134.589)"><path class="a" d="M109.668,352A3.669,3.669,0,0,0,106,355.668v29.347a3.668,3.668,0,1,0,7.337,0V355.668A3.669,3.669,0,0,0,109.668,352Z" transform="translate(-106 -352)"/></g><g transform="translate(72.03 47.62)"><path class="a" d="M234.342,126H219.668a3.668,3.668,0,1,0,0,7.337h14.673a3.668,3.668,0,1,0,0-7.337Z" transform="translate(-216 -126)"/></g><g transform="translate(147.974 47.62)"><path class="a" d="M434.342,126H419.668a3.668,3.668,0,0,0,0,7.337h14.673a3.668,3.668,0,1,0,0-7.337Z" transform="translate(-416 -126)"/></g><g transform="translate(139.379 15.096)"><path class="a" d="M409.207,42.225a3.67,3.67,0,0,0-5.188,0L393.645,52.6a3.669,3.669,0,0,0,5.188,5.188l10.374-10.374A3.669,3.669,0,0,0,409.207,42.225Z" transform="translate(-392.57 -41.151)"/></g><g transform="translate(85.277 15.096)"><path class="a" d="M267.787,52.6,257.413,42.225a3.669,3.669,0,1,0-5.188,5.188L262.6,57.787a3.669,3.669,0,0,0,5.188-5.188Z" transform="translate(-251.15 -41.151)"/></g></svg>