<svg xmlns="http://www.w3.org/2000/svg" width="103.197" height="103.195" viewBox="0 0 103.197 103.195"><defs><style>.a{fill:#355092;}</style></defs><path class="a" d="M.265,46.328a2.459,2.459,0,0,0,2.349,2.181,2.482,2.482,0,0,0,2.571-1.944A30.886,30.886,0,0,1,30.027,23.026l.718,5.85a2.461,2.461,0,0,0,4.382,1.215l11.45-14.656a2.461,2.461,0,0,0-.424-3.455L31.5.53A2.461,2.461,0,0,0,27.541,2.77l.729,5.942A33.894,33.894,0,0,0,.265,46.328ZM9.322,23.453A30.694,30.694,0,0,1,29.264,11.614a2.447,2.447,0,0,0,2.073-2.732l-.63-5.135L43.85,14.017,33.581,27.16l-.624-5.082a2.463,2.463,0,0,0-2.816-2.134,33.915,33.915,0,0,0-27.1,23.043A30.676,30.676,0,0,1,9.322,23.453ZM56.639,5.189A30.886,30.886,0,0,1,80.177,30.033l-5.85.718a2.461,2.461,0,0,0-1.215,4.382l4.094,3.2a1.512,1.512,0,1,0,1.861-2.382l-3.024-2.363,5.082-.624a2.463,2.463,0,0,0,2.134-2.816,33.915,33.915,0,0,0-23.043-27.1A30.875,30.875,0,0,1,91.588,29.269a2.447,2.447,0,0,0,2.732,2.073l5.135-.63L89.185,43.855l-5.3-4.143a1.512,1.512,0,0,0-1.862,2.382l5.745,4.489a2.461,2.461,0,0,0,3.455-.424L102.672,31.5a2.461,2.461,0,0,0-2.239-3.958l-5.942.729A33.893,33.893,0,0,0,56.932.263a2.484,2.484,0,0,0-2.238,2.356,2.473,2.473,0,0,0,1.944,2.571ZM46.559,98.018A30.886,30.886,0,0,1,23.02,73.175l5.85-.718a2.461,2.461,0,0,0,1.215-4.382L15.43,56.624a2.461,2.461,0,0,0-3.455.424L.525,71.7a2.461,2.461,0,0,0,2.239,3.958l5.942-.729A33.835,33.835,0,0,0,15.77,90.618a1.512,1.512,0,0,0,2.349-1.9,30.81,30.81,0,0,1-6.51-14.776,2.447,2.447,0,0,0-2.732-2.073l-5.135.63L14.012,59.352,27.155,69.621l-5.082.624a2.463,2.463,0,0,0-2.134,2.816,33.915,33.915,0,0,0,23.034,27.1,30.955,30.955,0,0,1-21.048-7.517,1.512,1.512,0,0,0-1.978,2.286,33.928,33.928,0,0,0,26.375,8.006,2.5,2.5,0,0,0,.236-4.919ZM51.6,43.006a8.6,8.6,0,1,0,8.6,8.6A8.608,8.608,0,0,0,51.6,43.006Zm0,14.173A5.575,5.575,0,1,1,57.174,51.6,5.581,5.581,0,0,1,51.6,57.179Zm51.341-.241a2.5,2.5,0,0,0-4.927-.294A30.886,30.886,0,0,1,73.17,80.182l-.718-5.85a2.461,2.461,0,0,0-4.382-1.215L56.619,87.772a2.461,2.461,0,0,0,.424,3.455L71.7,102.677a2.461,2.461,0,0,0,3.958-2.239L74.927,94.5A33.894,33.894,0,0,0,102.94,56.938ZM93.875,79.755A30.694,30.694,0,0,1,73.933,91.593a2.447,2.447,0,0,0-2.073,2.732l.63,5.135L59.347,89.191,69.616,76.047l.624,5.082a2.463,2.463,0,0,0,2.816,2.134,33.915,33.915,0,0,0,27.1-23.043,30.676,30.676,0,0,1-6.285,19.535ZM57.6,66.1a6.887,6.887,0,0,1,2.638.164c1.844.313,3.935.668,5.31-.707s1.02-3.465.707-5.31A6.9,6.9,0,0,1,66.09,57.6a6.95,6.95,0,0,1,1.9-1.644c1.565-1.1,3.338-2.342,3.338-4.357s-1.773-3.259-3.338-4.357a6.957,6.957,0,0,1-1.9-1.644,6.9,6.9,0,0,1,.164-2.638c.313-1.845.668-3.935-.707-5.31s-3.465-1.02-5.31-.707a6.9,6.9,0,0,1-2.638.164,6.95,6.95,0,0,1-1.644-1.9c-1.1-1.565-2.342-3.338-4.357-3.338s-3.259,1.773-4.357,3.338a6.957,6.957,0,0,1-1.644,1.9,6.9,6.9,0,0,1-2.638-.164c-1.845-.313-3.936-.668-5.31.707s-1.02,3.465-.707,5.31a6.9,6.9,0,0,1,.164,2.638,6.95,6.95,0,0,1-1.9,1.644c-1.565,1.1-3.338,2.342-3.338,4.357s1.773,3.259,3.338,4.357a6.957,6.957,0,0,1,1.9,1.644,6.9,6.9,0,0,1-.164,2.638c-.313,1.845-.668,3.935.707,5.31s3.465,1.02,5.31.707A6.9,6.9,0,0,1,45.6,66.1,6.95,6.95,0,0,1,47.242,68c1.1,1.565,2.342,3.338,4.357,3.338S54.858,69.564,55.956,68A6.95,6.95,0,0,1,57.6,66.1Zm-4.119.168c-.5.717-1.439,2.051-1.882,2.051s-1.379-1.334-1.882-2.051a7.735,7.735,0,0,0-2.958-2.96,4.589,4.589,0,0,0-1.778-.314,15.432,15.432,0,0,0-2.527.289c-.717.122-2.4.407-2.666.136s.015-1.949.136-2.666a7.966,7.966,0,0,0-.025-4.3,7.736,7.736,0,0,0-2.96-2.959c-.717-.5-2.051-1.439-2.051-1.882s1.334-1.379,2.051-1.882a7.735,7.735,0,0,0,2.96-2.958,7.969,7.969,0,0,0,.025-4.3c-.122-.717-.407-2.4-.136-2.666s1.949.015,2.666.136a7.964,7.964,0,0,0,4.3-.025,7.736,7.736,0,0,0,2.959-2.96c.5-.717,1.439-2.051,1.882-2.051s1.379,1.334,1.882,2.051a7.735,7.735,0,0,0,2.958,2.96,7.967,7.967,0,0,0,4.3.025c.717-.122,2.4-.406,2.666-.136s-.015,1.949-.136,2.666a7.966,7.966,0,0,0,.025,4.3,7.736,7.736,0,0,0,2.96,2.959c.717.5,2.051,1.439,2.051,1.882s-1.334,1.379-2.051,1.882a7.735,7.735,0,0,0-2.96,2.958,7.969,7.969,0,0,0-.025,4.3c.122.717.407,2.4.136,2.666s-1.949-.015-2.666-.136a7.968,7.968,0,0,0-4.3.025,7.736,7.736,0,0,0-2.959,2.96Z" transform="translate(0 -0.005)"/></svg>