<svg xmlns="http://www.w3.org/2000/svg" width="193.284" height="193.283" viewBox="0 0 193.284 193.283"><defs><style>.a{fill:#355092;}</style></defs><path class="a" d="M168.24,46.744a6.852,6.852,0,0,0,4.844-2.006L192.06,25.761a4.175,4.175,0,0,0-2.688-7.112l-10.1-.634,6.589-6.589a2.831,2.831,0,1,0-4-4l-6.589,6.589-.634-10.1a4.175,4.175,0,0,0-7.112-2.688L148.547,20.2a6.852,6.852,0,0,0-1.993,5.273l.652,10.392A89.346,89.346,0,0,0,23.237,164.05a2.831,2.831,0,0,0,4.189-3.811A83.714,83.714,0,0,1,146.516,42.764L133.6,55.683A65.514,65.514,0,0,0,31.037,133.917h0a65.555,65.555,0,0,0,122.49-16.639,2.831,2.831,0,1,0-5.544-1.15A59.892,59.892,0,0,1,36.07,131.322h0a59.112,59.112,0,0,1-6.628-27.37A59.832,59.832,0,0,1,129.595,59.685l-12.8,12.8a41.828,41.828,0,1,0,4,4l12.8-12.8A59.636,59.636,0,0,1,149.226,103.6a2.831,2.831,0,0,0,2.831,2.815h.017a2.832,2.832,0,0,0,2.815-2.848A65.283,65.283,0,0,0,137.6,59.684l12.92-12.92A83.715,83.715,0,0,1,36.71,169.005a2.831,2.831,0,1,0-3.564,4.4,89.337,89.337,0,0,0,145.522-69.454A88.61,88.61,0,0,0,161.1,50.741q-1.785-2.4-3.71-4.665c11.1.7,10.5.668,10.852.668Zm-42.791,57.207A36.159,36.159,0,1,1,112.777,76.5L99.893,89.387a18.025,18.025,0,1,0,4,4l12.884-12.884A35.959,35.959,0,0,1,125.449,103.951Zm-38.118,2a2.831,2.831,0,0,0,4,0l8.487-8.487a12.351,12.351,0,1,1-4-4l-8.487,8.487a2.831,2.831,0,0,0,0,4Zm64.874-80.834a1.186,1.186,0,0,1,.345-.914l16.64-16.639.74,11.784L152.912,36.369Zm4.71,15.254,17.019-17.019,11.784.74-16.64,16.64a1.183,1.183,0,0,1-.914.345Z" transform="translate(0 -0.002)"/></svg>